<?xml version="1.0" encoding="utf-8"?>
<!-- Generator: Adobe Illustrator 25.4.1, SVG Export Plug-In . SVG Version: 6.00 Build 0)  -->
<svg version="1.1" id="Layer_1" xmlns="http://www.w3.org/2000/svg" xmlns:xlink="http://www.w3.org/1999/xlink" x="0px" y="0px"
	 viewBox="0 0 100 125" style="enable-background:new 0 0 100 125;" xml:space="preserve">
<path d="M93.2,39.6l0.7-1.1c0.2-0.3,0.2-0.7,0-1c-0.2-0.3-0.5-0.5-0.9-0.5L86.8,37l-0.5-8.8l0.9-1.4c0.2-0.3,0.2-0.7,0-1
	s-0.5-0.5-0.9-0.5h-1.2L85.1,22l0.5-1c0.2-0.3,0.1-0.7,0-1c-0.2-0.3-0.5-0.5-0.8-0.5l-9.2-0.1c-0.4,0-0.8,0.2-0.9,0.6l-1.9,4.3
	c-0.1,0.3-0.1,0.7,0.1,0.9c0.1,0.2,0.3,0.3,0.6,0.4v1.8l-4.5,9.6c-0.1,0.1-0.2,0.2-0.2,0.3l-3.1,6c-0.3,0.5-0.1,1.1,0.4,1.3
	c0.1,0.1,0.2,0.1,0.4,0.1l0.3,8.4c-8.6-2.9-16.2-2.9-16.7-2.9c-0.5,0-6.5,0-13.9,2l0-18.2c0-0.1,0-0.2-0.1-0.3l-1.9-5.8v-8.5
	c0-0.1,0-0.3-0.1-0.4l-1.3-3.1v-2.3c0-0.2-0.1-0.4-0.2-0.5l-2.1-3.3c0,0-0.1-0.1-0.1-0.1l-2.5-3c-0.2-0.2-0.4-0.3-0.7-0.4
	c-0.3,0-0.5,0.1-0.7,0.2l-3.2,2.8l-0.1,0c-0.5,0-1,0.4-1,0.9L22,12.9l-0.6,0c-0.5,0-1,0.4-1,1l-0.3,8.5L8.8,22.6
	c-0.5,0-0.9,0.4-1,0.9L4.3,85c0,0.6,0.4,1,0.9,1.1c0,0,0,0,0.1,0c0.5,0,1-0.4,1-0.9l2-34.4l21.6-0.5l-0.1,4.4
	c-3.6,1.5-7.2,3.6-10.5,6.5C6.5,72,6.6,82.5,11,88.6c2.6,3.6,5.6,4.9,8.9,4.9c4.7,0,10-2.8,15.2-5.5c5.1-2.7,10.3-5.4,14.9-5.4
	c4.5,0,9.8,2.8,14.9,5.4c5.2,2.7,10.5,5.5,15.2,5.5c3.3,0,6.3-1.3,8.9-4.9c3.1-4.4,4.1-11-0.3-18.5L87,40l4.2,0l2.6,43.1
	c0,0.5,0.5,0.9,1,0.9c0,0,0,0,0.1,0c0.6,0,1-0.5,0.9-1.1L93.2,39.6z M82.5,62.8c-0.2-0.1-0.3-0.3-0.5-0.4l-1.3-25.9h0.4L82.5,62.8z
	 M75.1,36.9l-3.3,0l3-6L75.1,36.9z M71.7,55.3l-0.5-15.5l4,0l0.9,17.8C74.7,56.8,73.2,56,71.7,55.3z M78.2,59.1l-1.1-22.7h1.7
	L80,60.5C79.4,60,78.8,59.5,78.2,59.1z M77,34.4L76.7,28h7.6l0.3,6.4H77z M77.1,25.3l-0.1-3l6.1,0.1l0.2,2.8H77.1z M68.3,44.7l1-2
	l0.4,11.7c-0.4-0.1-0.7-0.3-1.1-0.4L68.3,44.7z M32.1,19.8v2.6c0,0,0,0,0,0c0,0-0.1,0-0.1-0.1c-0.1,0-0.1-0.1-0.2-0.1
	c0,0-0.1,0-0.2,0c-0.1,0-0.1,0-0.2,0l0.1-3.7L32.1,19.8z M32.3,28.9l1.8,5.4l0,18.5l-2.2-3.9L32.3,28.9z M26.9,8.9l0.5,0.6l-1.1,0
	L26.9,8.9z M24.1,11.5l4.4-0.1v1.4L24,12.9L24.1,11.5z M22.4,14.9l7.2-0.1l-0.2,7.4l-7.3,0.2L22.4,14.9z M8.4,48.7l1.4-24.1
	l20.6-0.4l-0.5,24L8.4,48.7z M31.8,52.9l0.4,0.7c-0.1,0.1-0.3,0.1-0.4,0.2L31.8,52.9z M87.2,87.4c-5.2,7.3-13.1,3.2-21.5-1.2
	c-5.3-2.8-10.8-5.7-15.8-5.7c-5,0-10.5,2.9-15.8,5.7c-8.4,4.4-16.3,8.5-21.5,1.2c-0.8-1.2-1.5-2.5-1.9-4.1
	C13.2,81.3,26.7,71,49.9,71c23.3,0,36.9,9.8,39.4,11.7C88.9,84.5,88.2,86.1,87.2,87.4z M50,52.3c0.2,0,17.4-0.1,29.4,10.2
	c0.4,0.3,0.7,0.6,1,0.9c0,0,0,0,0,0c2.8,2.5,4.8,5,6.3,7.4c0,0,0,0.1,0,0.1c2,3.4,2.9,6.6,2.8,9.4C85.3,77.2,71.9,69,49.9,69
	c-22.1,0-35.4,8.8-39.6,12.1c-0.4-5.2,2.2-11.7,10.2-18.5C32.5,52.3,49.8,52.3,50,52.3L50,52.3L50,52.3z M84.6,64.9l-1.4-28.6h1.5
	L86.4,67C85.8,66.3,85.3,65.6,84.6,64.9z"/>
</svg>
