<?xml version="1.0" encoding="utf-8"?>
<!-- Generator: Adobe Illustrator 25.4.1, SVG Export Plug-In . SVG Version: 6.00 Build 0)  -->
<svg version="1.1" id="Layer_1" xmlns="http://www.w3.org/2000/svg" xmlns:xlink="http://www.w3.org/1999/xlink" x="0px" y="0px"
	 viewBox="0 0 64 80" style="enable-background:new 0 0 64 80;" xml:space="preserve">
<g>
	<path d="M12,40c0-1.1,0.9-2,2-2s2,0.9,2,2s-0.9,2-2,2S12,41.1,12,40z M33.8,51.5c0.2,0.3,0.2,0.7,0,1C33.7,52.8,33.4,53,33,53H13
		c-0.6,0-1-0.4-1-1c0-0.2,0-0.4,0.1-0.5l6-10c0.3-0.5,0.9-0.6,1.4-0.3c0.1,0.1,0.3,0.2,0.3,0.3l1.2,2l3.1-5c0.3-0.5,0.9-0.6,1.4-0.3
		c0.1,0.1,0.2,0.2,0.3,0.3L33.8,51.5z M31.2,51L25,40.9l-3.1,5l0,0c0,0.1-0.1,0.1-0.1,0.2c0,0-0.1,0.1-0.1,0.1l0,0l-0.1,0l-0.2,0.1
		c-0.1,0-0.1,0-0.2,0h-0.2c-0.1,0-0.1,0-0.2-0.1c0,0-0.1,0-0.1,0l0,0c-0.1,0-0.1-0.1-0.1-0.1c0,0-0.1-0.1-0.1-0.2l0,0l-1.2-2
		L14.8,51H31.2z M56,16v7c0,1.7-1.3,3-3,3h-3v10c0,1.7-1.3,3-3,3h-9v15c0,1.7-1.3,3-3,3H11c-1.7,0-3-1.3-3-3V37c0-1.7,1.3-3,3-3h13
		v-8h-3c-1.7,0-3-1.3-3-3v-7c0-3.8,3-6.9,6.8-7c0.6-0.6,1.4-1,2.2-1h5c0.6,0,1,0.4,1,1c0,2.2,1.8,4,4,4s4-1.8,4-4c0-0.6,0.4-1,1-1h5
		c0.9,0,1.7,0.4,2.2,1C53,9.1,56,12.2,56,16z M24,24V11.1c-2.3,0.5-4,2.5-4,4.9v7c0,0.6,0.4,1,1,1H24z M36,37c0-0.6-0.4-1-1-1H11
		c-0.6,0-1,0.4-1,1v17c0,0.6,0.4,1,1,1h24c0.6,0,1-0.4,1-1V37z M48,25V11c0-0.6-0.4-1-1-1h-4.1c-0.6,3.3-3.7,5.4-6.9,4.9
		c-2.5-0.4-4.4-2.4-4.9-4.9H27c-0.6,0-1,0.4-1,1v23h9c1.7,0,3,1.3,3,3h9c0.6,0,1-0.4,1-1V25z M54,16c0-2.4-1.7-4.4-4-4.9V24h3
		c0.6,0,1-0.4,1-1V16z M44.8,26.5c0.3,0.5,0.2,1.1-0.3,1.4C44.4,27.9,44.2,28,44,28H30c-0.6,0-1-0.5-1-1c0-0.2,0.1-0.4,0.1-0.5
		l4.2-6.9c0.3-0.5,0.9-0.6,1.4-0.3c0.1,0.1,0.2,0.2,0.3,0.3l0.6,1l1.9-3.1c0.3-0.5,0.9-0.6,1.4-0.3c0.1,0.1,0.2,0.2,0.3,0.3
		L44.8,26.5z M42.2,26l-3.8-6.1L36.5,23l0,0c0,0.1-0.1,0.1-0.1,0.1c0,0.1-0.1,0.1-0.2,0.1l0,0h-0.1l-0.2,0.1c-0.1,0-0.1,0-0.2,0
		c-0.1,0-0.1,0-0.2,0c-0.1,0-0.1,0-0.2-0.1c0,0-0.1,0-0.1,0l0,0c-0.1,0-0.1-0.1-0.1-0.1c0,0-0.1-0.1-0.1-0.1l0,0l-0.6-1l-2.4,4
		L42.2,26L42.2,26z M30.5,20c0.8,0,1.5-0.7,1.5-1.5S31.3,17,30.5,17S29,17.7,29,18.5S29.7,20,30.5,20z M27,59H13c-0.6,0-1,0.4-1,1
		s0.4,1,1,1h14c0.6,0,1-0.4,1-1S27.6,59,27,59z M33,59h-2c-0.6,0-1,0.4-1,1s0.4,1,1,1h2c0.6,0,1-0.4,1-1S33.6,59,33,59z M10.3,31.7
		c0.1,0.1,0.2,0.2,0.3,0.2c0.2,0.1,0.5,0.1,0.8,0c0.1,0,0.2-0.1,0.3-0.2l2-2c0.4-0.4,0.4-1,0-1.4s-1-0.4-1.4,0l0,0L12,28.6V25
		c0-0.6,0.4-1,1-1h2c0.6,0,1-0.4,1-1s-0.4-1-1-1h-2c-1.7,0-3,1.3-3,3v3.6l-0.3-0.3c-0.4-0.4-1-0.4-1.4,0s-0.4,1,0,1.4L10.3,31.7z
		 M45.7,41.3c-0.1-0.1-0.2-0.2-0.3-0.2c-0.2-0.1-0.5-0.1-0.8,0c-0.1,0-0.2,0.1-0.3,0.2l-2,2c-0.4,0.4-0.4,1,0,1.4s1,0.4,1.4,0
		l0.3-0.3V48c0,0.6-0.4,1-1,1h-2c-0.6,0-1,0.4-1,1s0.4,1,1,1h2c1.7,0,3-1.3,3-3v-3.6l0.3,0.3c0.4,0.4,1,0.4,1.4,0c0,0,0,0,0,0
		c0.4-0.4,0.4-1,0-1.4c0,0,0,0,0,0L45.7,41.3z"/>
</g>
</svg>
