<svg xmlns="http://www.w3.org/2000/svg" viewBox="0 0 32 40" x="0px" y="0px"><title>Football </title><g><path d="M10.22,30a19.59,19.59,0,0,1-6.5-1.1,1,1,0,0,1-.61-.61A19.29,19.29,0,0,1,2,21.78,19.8,19.8,0,0,1,21.78,2,19.29,19.29,0,0,1,28.3,3.11a1,1,0,0,1,.61.61,19.59,19.59,0,0,1,1.1,6.5A19.8,19.8,0,0,1,10.22,30ZM4.84,27.17a17.63,17.63,0,0,0,5.38.83A17.8,17.8,0,0,0,28,10.22a17.63,17.63,0,0,0-.83-5.38A17.37,17.37,0,0,0,21.78,4,17.8,17.8,0,0,0,4,21.78,17.37,17.37,0,0,0,4.84,27.17Z"/><path d="M21.41,12l1.29-1.29a1,1,0,0,0-1.41-1.41L20,10.59,18.71,9.29a1,1,0,0,0-1.41,1.41L18.59,12,16,14.59l-1.29-1.29a1,1,0,0,0-1.41,1.41L14.59,16,12,18.59l-1.29-1.29a1,1,0,0,0-1.41,1.41L10.59,20,9.29,21.29a1,1,0,1,0,1.41,1.41L12,21.41l1.29,1.29a1,1,0,0,0,1.41-1.41L13.41,20,16,17.41l1.29,1.29a1,1,0,0,0,1.41-1.41L17.41,16,20,13.41l1.29,1.29a1,1,0,0,0,1.41-1.41Z"/></g><text x="0" y="47" fill="#000000" font-size="5px" font-weight="bold" font-family="'Helvetica Neue', Helvetica, Arial-Unicode, Arial, Sans-serif">Created by Lalu Triawanri Novianung</text><text x="0" y="52" fill="#000000" font-size="5px" font-weight="bold" font-family="'Helvetica Neue', Helvetica, Arial-Unicode, Arial, Sans-serif">from the Noun Project</text></svg>